# xmcd CD database file
#
# Track frame offsets:
#	150
#	21430
#	40055
#	58812
#	73522
#	90812
#	105930
#	125947
#	140207
#	163237
#
# Disc length: 2420 seconds
#
# Revision: 4
# Processed by: cddbd v1.5.2PL0 Copyright (c) Steve Scherf et al.
# Submitted via: CDex 1.51
#
DISCID=8c09720a
DTITLE=Whitesnake - Starkers In Tokyo
DYEAR=1997
DGENRE=Hard Rock
TTITLE0=Sailing Ships
TTITLE1=Too Many Tears
TTITLE2=The Deeper The Love
TTITLE3=Love Aint No Stranger
TTITLE4=Cant Go On
TTITLE5=Give Me All Your Love
TTITLE6=Dont Fade Away
TTITLE7=Is This Love
TTITLE8=Here I Go Again
TTITLE9=Soldier Of Fortune
EXTD=YEAR: 1997
EXTT0=
EXTT1=
EXTT2=
EXTT3=
EXTT4=
EXTT5=
EXTT6=
EXTT7=
EXTT8=
EXTT9=
PLAYORDER=
